<svg xmlns="http://www.w3.org/2000/svg" width="760" height="333" viewBox="0 0 760 333">
<rect width="100%" height="100%" fill="#ffffff"/>
<text x="380" y="34" text-anchor="middle" font-size="22" font-family="Arial">File System Free-Space Bitmap Snapshots</text>
<text x="40" y="62" font-size="15" font-family="Arial">Snapshot 1</text>
<rect x="40" y="76" width="21" height="21" fill="#eb5757" stroke="#222"/>
<text x="50.5" y="92" text-anchor="middle" font-size="11" font-family="Arial">1</text>
<rect x="64" y="76" width="21" height="21" fill="#eb5757" stroke="#222"/>
<text x="74.5" y="92" text-anchor="middle" font-size="11" font-family="Arial">1</text>
<rect x="88" y="76" width="21" height="21" fill="#eb5757" stroke="#222"/>
<text x="98.5" y="92" text-anchor="middle" font-size="11" font-family="Arial">1</text>
<rect x="112" y="76" width="21" height="21" fill="#eb5757" stroke="#222"/>
<text x="122.5" y="92" text-anchor="middle" font-size="11" font-family="Arial">1</text>
<rect x="136" y="76" width="21" height="21" fill="#eb5757" stroke="#222"/>
<text x="146.5" y="92" text-anchor="middle" font-size="11" font-family="Arial">1</text>
<rect x="160" y="76" width="21" height="21" fill="#eb5757" stroke="#222"/>
<text x="170.5" y="92" text-anchor="middle" font-size="11" font-family="Arial">1</text>
<rect x="184" y="76" width="21" height="21" fill="#eb5757" stroke="#222"/>
<text x="194.5" y="92" text-anchor="middle" font-size="11" font-family="Arial">1</text>
<rect x="208" y="76" width="21" height="21" fill="#eb5757" stroke="#222"/>
<text x="218.5" y="92" text-anchor="middle" font-size="11" font-family="Arial">1</text>
<rect x="232" y="76" width="21" height="21" fill="#eb5757" stroke="#222"/>
<text x="242.5" y="92" text-anchor="middle" font-size="11" font-family="Arial">1</text>
<rect x="256" y="76" width="21" height="21" fill="#eb5757" stroke="#222"/>
<text x="266.5" y="92" text-anchor="middle" font-size="11" font-family="Arial">1</text>
<rect x="280" y="76" width="21" height="21" fill="#eb5757" stroke="#222"/>
<text x="290.5" y="92" text-anchor="middle" font-size="11" font-family="Arial">1</text>
<rect x="304" y="76" width="21" height="21" fill="#eb5757" stroke="#222"/>
<text x="314.5" y="92" text-anchor="middle" font-size="11" font-family="Arial">1</text>
<rect x="40" y="100" width="21" height="21" fill="#eb5757" stroke="#222"/>
<text x="50.5" y="116" text-anchor="middle" font-size="11" font-family="Arial">1</text>
<rect x="64" y="100" width="21" height="21" fill="#d0d7de" stroke="#222"/>
<text x="74.5" y="116" text-anchor="middle" font-size="11" font-family="Arial">0</text>
<rect x="88" y="100" width="21" height="21" fill="#d0d7de" stroke="#222"/>
<text x="98.5" y="116" text-anchor="middle" font-size="11" font-family="Arial">0</text>
<rect x="112" y="100" width="21" height="21" fill="#d0d7de" stroke="#222"/>
<text x="122.5" y="116" text-anchor="middle" font-size="11" font-family="Arial">0</text>
<rect x="136" y="100" width="21" height="21" fill="#d0d7de" stroke="#222"/>
<text x="146.5" y="116" text-anchor="middle" font-size="11" font-family="Arial">0</text>
<rect x="160" y="100" width="21" height="21" fill="#d0d7de" stroke="#222"/>
<text x="170.5" y="116" text-anchor="middle" font-size="11" font-family="Arial">0</text>
<rect x="184" y="100" width="21" height="21" fill="#d0d7de" stroke="#222"/>
<text x="194.5" y="116" text-anchor="middle" font-size="11" font-family="Arial">0</text>
<rect x="208" y="100" width="21" height="21" fill="#d0d7de" stroke="#222"/>
<text x="218.5" y="116" text-anchor="middle" font-size="11" font-family="Arial">0</text>
<rect x="232" y="100" width="21" height="21" fill="#d0d7de" stroke="#222"/>
<text x="242.5" y="116" text-anchor="middle" font-size="11" font-family="Arial">0</text>
<rect x="256" y="100" width="21" height="21" fill="#d0d7de" stroke="#222"/>
<text x="266.5" y="116" text-anchor="middle" font-size="11" font-family="Arial">0</text>
<rect x="280" y="100" width="21" height="21" fill="#d0d7de" stroke="#222"/>
<text x="290.5" y="116" text-anchor="middle" font-size="11" font-family="Arial">0</text>
<rect x="304" y="100" width="21" height="21" fill="#d0d7de" stroke="#222"/>
<text x="314.5" y="116" text-anchor="middle" font-size="11" font-family="Arial">0</text>
<text x="40" y="186" font-size="15" font-family="Arial">Snapshot 2</text>
<rect x="40" y="200" width="21" height="21" fill="#eb5757" stroke="#222"/>
<text x="50.5" y="216" text-anchor="middle" font-size="11" font-family="Arial">1</text>
<rect x="64" y="200" width="21" height="21" fill="#eb5757" stroke="#222"/>
<text x="74.5" y="216" text-anchor="middle" font-size="11" font-family="Arial">1</text>
<rect x="88" y="200" width="21" height="21" fill="#d0d7de" stroke="#222"/>
<text x="98.5" y="216" text-anchor="middle" font-size="11" font-family="Arial">0</text>
<rect x="112" y="200" width="21" height="21" fill="#d0d7de" stroke="#222"/>
<text x="122.5" y="216" text-anchor="middle" font-size="11" font-family="Arial">0</text>
<rect x="136" y="200" width="21" height="21" fill="#d0d7de" stroke="#222"/>
<text x="146.5" y="216" text-anchor="middle" font-size="11" font-family="Arial">0</text>
<rect x="160" y="200" width="21" height="21" fill="#d0d7de" stroke="#222"/>
<text x="170.5" y="216" text-anchor="middle" font-size="11" font-family="Arial">0</text>
<rect x="184" y="200" width="21" height="21" fill="#eb5757" stroke="#222"/>
<text x="194.5" y="216" text-anchor="middle" font-size="11" font-family="Arial">1</text>
<rect x="208" y="200" width="21" height="21" fill="#eb5757" stroke="#222"/>
<text x="218.5" y="216" text-anchor="middle" font-size="11" font-family="Arial">1</text>
<rect x="232" y="200" width="21" height="21" fill="#eb5757" stroke="#222"/>
<text x="242.5" y="216" text-anchor="middle" font-size="11" font-family="Arial">1</text>
<rect x="256" y="200" width="21" height="21" fill="#eb5757" stroke="#222"/>
<text x="266.5" y="216" text-anchor="middle" font-size="11" font-family="Arial">1</text>
<rect x="280" y="200" width="21" height="21" fill="#eb5757" stroke="#222"/>
<text x="290.5" y="216" text-anchor="middle" font-size="11" font-family="Arial">1</text>
<rect x="304" y="200" width="21" height="21" fill="#eb5757" stroke="#222"/>
<text x="314.5" y="216" text-anchor="middle" font-size="11" font-family="Arial">1</text>
<rect x="40" y="224" width="21" height="21" fill="#eb5757" stroke="#222"/>
<text x="50.5" y="240" text-anchor="middle" font-size="11" font-family="Arial">1</text>
<rect x="64" y="224" width="21" height="21" fill="#d0d7de" stroke="#222"/>
<text x="74.5" y="240" text-anchor="middle" font-size="11" font-family="Arial">0</text>
<rect x="88" y="224" width="21" height="21" fill="#d0d7de" stroke="#222"/>
<text x="98.5" y="240" text-anchor="middle" font-size="11" font-family="Arial">0</text>
<rect x="112" y="224" width="21" height="21" fill="#d0d7de" stroke="#222"/>
<text x="122.5" y="240" text-anchor="middle" font-size="11" font-family="Arial">0</text>
<rect x="136" y="224" width="21" height="21" fill="#d0d7de" stroke="#222"/>
<text x="146.5" y="240" text-anchor="middle" font-size="11" font-family="Arial">0</text>
<rect x="160" y="224" width="21" height="21" fill="#d0d7de" stroke="#222"/>
<text x="170.5" y="240" text-anchor="middle" font-size="11" font-family="Arial">0</text>
<rect x="184" y="224" width="21" height="21" fill="#d0d7de" stroke="#222"/>
<text x="194.5" y="240" text-anchor="middle" font-size="11" font-family="Arial">0</text>
<rect x="208" y="224" width="21" height="21" fill="#d0d7de" stroke="#222"/>
<text x="218.5" y="240" text-anchor="middle" font-size="11" font-family="Arial">0</text>
<rect x="232" y="224" width="21" height="21" fill="#d0d7de" stroke="#222"/>
<text x="242.5" y="240" text-anchor="middle" font-size="11" font-family="Arial">0</text>
<rect x="256" y="224" width="21" height="21" fill="#d0d7de" stroke="#222"/>
<text x="266.5" y="240" text-anchor="middle" font-size="11" font-family="Arial">0</text>
<rect x="280" y="224" width="21" height="21" fill="#d0d7de" stroke="#222"/>
<text x="290.5" y="240" text-anchor="middle" font-size="11" font-family="Arial">0</text>
<rect x="304" y="224" width="21" height="21" fill="#d0d7de" stroke="#222"/>
<text x="314.5" y="240" text-anchor="middle" font-size="11" font-family="Arial">0</text>
</svg>