<svg xmlns="http://www.w3.org/2000/svg" width="980" height="540" viewBox="0 0 980 540">
<rect width="100%" height="100%" fill="#ffffff"/>
<text x="490.0" y="34" text-anchor="middle" font-size="22" font-family="Arial">Belady Anomaly: FIFO Faults Increase With More Frames</text>
<line x1="86" y1="435" x2="940" y2="435" stroke="#222"/>
<line x1="86" y1="72" x2="86" y2="435" stroke="#222"/>
<line x1="86" y1="435.0" x2="940" y2="435.0" stroke="#e8e8e8"/>
<text x="76" y="440.0" text-anchor="end" font-size="12" font-family="Arial">0.0</text>
<line x1="86" y1="362.4" x2="940" y2="362.4" stroke="#e8e8e8"/>
<text x="76" y="367.4" text-anchor="end" font-size="12" font-family="Arial">2.4</text>
<line x1="86" y1="289.8" x2="940" y2="289.8" stroke="#e8e8e8"/>
<text x="76" y="294.8" text-anchor="end" font-size="12" font-family="Arial">4.7</text>
<line x1="86" y1="217.2" x2="940" y2="217.2" stroke="#e8e8e8"/>
<text x="76" y="222.2" text-anchor="end" font-size="12" font-family="Arial">7.1</text>
<line x1="86" y1="144.6" x2="940" y2="144.6" stroke="#e8e8e8"/>
<text x="76" y="149.6" text-anchor="end" font-size="12" font-family="Arial">9.4</text>
<line x1="86" y1="72.0" x2="940" y2="72.0" stroke="#e8e8e8"/>
<text x="76" y="77.0" text-anchor="end" font-size="12" font-family="Arial">11.8</text>
<rect x="182.1" y="158.1" width="166.5" height="276.9" fill="#eb5757"/>
<text x="265.3" y="153.1" text-anchor="middle" font-size="10" font-family="Arial">9.00</text>
<text x="299.5" y="465" text-anchor="middle" font-size="12" font-family="Arial">3 frames</text>
<rect x="609.1" y="127.4" width="166.5" height="307.6" fill="#eb5757"/>
<text x="692.3" y="122.4" text-anchor="middle" font-size="10" font-family="Arial">10.00</text>
<text x="726.5" y="465" text-anchor="middle" font-size="12" font-family="Arial">4 frames</text>
<rect x="86" y="498" width="16" height="16" fill="#eb5757"/>
<text x="108" y="511" font-size="13" font-family="Arial">FIFO faults</text>
</svg>