<svg xmlns="http://www.w3.org/2000/svg" width="980" height="540" viewBox="0 0 980 540">
<rect width="100%" height="100%" fill="#ffffff"/>
<text x="490.0" y="34" text-anchor="middle" font-size="22" font-family="Arial">Page Replacement: Fault Count / Fault Rate / Hit Rate</text>
<line x1="86" y1="435" x2="940" y2="435" stroke="#222"/>
<line x1="86" y1="72" x2="86" y2="435" stroke="#222"/>
<line x1="86" y1="435.0" x2="940" y2="435.0" stroke="#e8e8e8"/>
<text x="76" y="440.0" text-anchor="end" font-size="12" font-family="Arial">0.0</text>
<line x1="86" y1="362.4" x2="940" y2="362.4" stroke="#e8e8e8"/>
<text x="76" y="367.4" text-anchor="end" font-size="12" font-family="Arial">17.7</text>
<line x1="86" y1="289.8" x2="940" y2="289.8" stroke="#e8e8e8"/>
<text x="76" y="294.8" text-anchor="end" font-size="12" font-family="Arial">35.4</text>
<line x1="86" y1="217.2" x2="940" y2="217.2" stroke="#e8e8e8"/>
<text x="76" y="222.2" text-anchor="end" font-size="12" font-family="Arial">53.1</text>
<line x1="86" y1="144.6" x2="940" y2="144.6" stroke="#e8e8e8"/>
<text x="76" y="149.6" text-anchor="end" font-size="12" font-family="Arial">70.8</text>
<line x1="86" y1="72.0" x2="940" y2="72.0" stroke="#e8e8e8"/>
<text x="76" y="77.0" text-anchor="end" font-size="12" font-family="Arial">88.5</text>
<rect x="118.0" y="373.5" width="55.5" height="61.5" fill="#27ae60"/>
<text x="145.8" y="368.5" text-anchor="middle" font-size="10" font-family="Arial">15.00</text>
<rect x="189.2" y="127.4" width="55.5" height="307.6" fill="#eb5757"/>
<text x="216.9" y="122.4" text-anchor="middle" font-size="10" font-family="Arial">75.00</text>
<rect x="260.4" y="332.5" width="55.5" height="102.5" fill="#2f80ed"/>
<text x="288.1" y="327.5" text-anchor="middle" font-size="10" font-family="Arial">25.00</text>
<text x="228.3" y="465" text-anchor="middle" font-size="12" font-family="Arial">FIFO</text>
<rect x="402.7" y="385.8" width="55.5" height="49.2" fill="#27ae60"/>
<text x="430.4" y="380.8" text-anchor="middle" font-size="10" font-family="Arial">12.00</text>
<rect x="473.9" y="188.9" width="55.5" height="246.1" fill="#eb5757"/>
<text x="501.6" y="183.9" text-anchor="middle" font-size="10" font-family="Arial">60.00</text>
<rect x="545.0" y="270.9" width="55.5" height="164.1" fill="#2f80ed"/>
<text x="572.8" y="265.9" text-anchor="middle" font-size="10" font-family="Arial">40.00</text>
<text x="513.0" y="465" text-anchor="middle" font-size="12" font-family="Arial">LRU</text>
<rect x="687.4" y="398.1" width="55.5" height="36.9" fill="#27ae60"/>
<text x="715.1" y="393.1" text-anchor="middle" font-size="10" font-family="Arial">9.00</text>
<rect x="758.5" y="250.4" width="55.5" height="184.6" fill="#eb5757"/>
<text x="786.3" y="245.4" text-anchor="middle" font-size="10" font-family="Arial">45.00</text>
<rect x="829.7" y="209.4" width="55.5" height="225.6" fill="#2f80ed"/>
<text x="857.4" y="204.4" text-anchor="middle" font-size="10" font-family="Arial">55.00</text>
<text x="797.7" y="465" text-anchor="middle" font-size="12" font-family="Arial">OPT</text>
<rect x="86" y="498" width="16" height="16" fill="#27ae60"/>
<text x="108" y="511" font-size="13" font-family="Arial">Faults</text>
<rect x="276" y="498" width="16" height="16" fill="#eb5757"/>
<text x="298" y="511" font-size="13" font-family="Arial">Fault rate %</text>
<rect x="466" y="498" width="16" height="16" fill="#2f80ed"/>
<text x="488" y="511" font-size="13" font-family="Arial">Hit rate %</text>
</svg>