<svg xmlns="http://www.w3.org/2000/svg" width="1100" height="220" viewBox="0 0 1100 220">
<rect width="100%" height="100%" fill="#ffffff"/>
<text x="550" y="34" text-anchor="middle" font-size="22" font-family="Arial">RR Scheduling Gantt Chart (q=3)</text>
<rect x="70.0" y="90" width="84.7" height="46" fill="#2f80ed" stroke="#222"/>
<text x="112.4" y="119" text-anchor="middle" font-size="13" font-family="Arial">P1</text>
<text x="70.0" y="158" text-anchor="middle" font-size="11" font-family="Arial">0</text>
<rect x="154.7" y="90" width="84.7" height="46" fill="#f2994a" stroke="#222"/>
<text x="197.1" y="119" text-anchor="middle" font-size="13" font-family="Arial">P2</text>
<text x="154.7" y="158" text-anchor="middle" font-size="11" font-family="Arial">3</text>
<rect x="239.4" y="90" width="84.7" height="46" fill="#27ae60" stroke="#222"/>
<text x="281.8" y="119" text-anchor="middle" font-size="13" font-family="Arial">P3</text>
<text x="239.4" y="158" text-anchor="middle" font-size="11" font-family="Arial">6</text>
<rect x="324.1" y="90" width="84.7" height="46" fill="#eb5757" stroke="#222"/>
<text x="366.5" y="119" text-anchor="middle" font-size="13" font-family="Arial">P4</text>
<text x="324.1" y="158" text-anchor="middle" font-size="11" font-family="Arial">9</text>
<rect x="408.8" y="90" width="84.7" height="46" fill="#2f80ed" stroke="#222"/>
<text x="451.2" y="119" text-anchor="middle" font-size="13" font-family="Arial">P1</text>
<text x="408.8" y="158" text-anchor="middle" font-size="11" font-family="Arial">12</text>
<rect x="493.5" y="90" width="56.5" height="46" fill="#9b51e0" stroke="#222"/>
<text x="521.8" y="119" text-anchor="middle" font-size="13" font-family="Arial">P5</text>
<text x="493.5" y="158" text-anchor="middle" font-size="11" font-family="Arial">15</text>
<rect x="550.0" y="90" width="28.2" height="46" fill="#f2994a" stroke="#222"/>
<text x="564.1" y="119" text-anchor="middle" font-size="13" font-family="Arial">P2</text>
<text x="550.0" y="158" text-anchor="middle" font-size="11" font-family="Arial">17</text>
<rect x="578.2" y="90" width="84.7" height="46" fill="#00a3a3" stroke="#222"/>
<text x="620.6" y="119" text-anchor="middle" font-size="13" font-family="Arial">P6</text>
<text x="578.2" y="158" text-anchor="middle" font-size="11" font-family="Arial">18</text>
<rect x="662.9" y="90" width="84.7" height="46" fill="#27ae60" stroke="#222"/>
<text x="705.3" y="119" text-anchor="middle" font-size="13" font-family="Arial">P3</text>
<text x="662.9" y="158" text-anchor="middle" font-size="11" font-family="Arial">21</text>
<rect x="747.6" y="90" width="56.5" height="46" fill="#eb5757" stroke="#222"/>
<text x="775.9" y="119" text-anchor="middle" font-size="13" font-family="Arial">P4</text>
<text x="747.6" y="158" text-anchor="middle" font-size="11" font-family="Arial">24</text>
<rect x="804.1" y="90" width="56.5" height="46" fill="#2f80ed" stroke="#222"/>
<text x="832.4" y="119" text-anchor="middle" font-size="13" font-family="Arial">P1</text>
<text x="804.1" y="158" text-anchor="middle" font-size="11" font-family="Arial">26</text>
<rect x="860.6" y="90" width="84.7" height="46" fill="#00a3a3" stroke="#222"/>
<text x="902.9" y="119" text-anchor="middle" font-size="13" font-family="Arial">P6</text>
<text x="860.6" y="158" text-anchor="middle" font-size="11" font-family="Arial">28</text>
<rect x="945.3" y="90" width="84.7" height="46" fill="#27ae60" stroke="#222"/>
<text x="987.6" y="119" text-anchor="middle" font-size="13" font-family="Arial">P3</text>
<text x="945.3" y="158" text-anchor="middle" font-size="11" font-family="Arial">31</text>
<text x="1030" y="158" text-anchor="middle" font-size="11" font-family="Arial">34</text>
</svg>