<svg xmlns="http://www.w3.org/2000/svg" width="980" height="540" viewBox="0 0 980 540">
<rect width="100%" height="100%" fill="#ffffff"/>
<text x="490.0" y="34" text-anchor="middle" font-size="22" font-family="Arial">Processor Scheduling: Turnaround / Waiting / Response</text>
<line x1="86" y1="435" x2="940" y2="435" stroke="#222"/>
<line x1="86" y1="72" x2="86" y2="435" stroke="#222"/>
<line x1="86" y1="435.0" x2="940" y2="435.0" stroke="#e8e8e8"/>
<text x="76" y="440.0" text-anchor="end" font-size="12" font-family="Arial">0.0</text>
<line x1="86" y1="362.4" x2="940" y2="362.4" stroke="#e8e8e8"/>
<text x="76" y="367.4" text-anchor="end" font-size="12" font-family="Arial">5.3</text>
<line x1="86" y1="289.8" x2="940" y2="289.8" stroke="#e8e8e8"/>
<text x="76" y="294.8" text-anchor="end" font-size="12" font-family="Arial">10.5</text>
<line x1="86" y1="217.2" x2="940" y2="217.2" stroke="#e8e8e8"/>
<text x="76" y="222.2" text-anchor="end" font-size="12" font-family="Arial">15.8</text>
<line x1="86" y1="144.6" x2="940" y2="144.6" stroke="#e8e8e8"/>
<text x="76" y="149.6" text-anchor="end" font-size="12" font-family="Arial">21.1</text>
<line x1="86" y1="72.0" x2="940" y2="72.0" stroke="#e8e8e8"/>
<text x="76" y="77.0" text-anchor="end" font-size="12" font-family="Arial">26.3</text>
<rect x="102.0" y="184.7" width="27.8" height="250.3" fill="#2f80ed"/>
<text x="115.9" y="179.7" text-anchor="middle" font-size="10" font-family="Arial">18.17</text>
<rect x="137.6" y="262.8" width="27.8" height="172.2" fill="#f2994a"/>
<text x="151.5" y="257.8" text-anchor="middle" font-size="10" font-family="Arial">12.50</text>
<rect x="173.2" y="262.8" width="27.8" height="172.2" fill="#27ae60"/>
<text x="187.1" y="257.8" text-anchor="middle" font-size="10" font-family="Arial">12.50</text>
<text x="157.2" y="465" text-anchor="middle" font-size="12" font-family="Arial">FCFS</text>
<rect x="244.3" y="228.4" width="27.8" height="206.6" fill="#2f80ed"/>
<text x="258.2" y="223.4" text-anchor="middle" font-size="10" font-family="Arial">15.00</text>
<rect x="279.9" y="306.5" width="27.8" height="128.5" fill="#f2994a"/>
<text x="293.8" y="301.5" text-anchor="middle" font-size="10" font-family="Arial">9.33</text>
<rect x="315.5" y="306.5" width="27.8" height="128.5" fill="#27ae60"/>
<text x="329.4" y="301.5" text-anchor="middle" font-size="10" font-family="Arial">9.33</text>
<text x="299.5" y="465" text-anchor="middle" font-size="12" font-family="Arial">SJF</text>
<rect x="386.7" y="127.4" width="27.8" height="307.6" fill="#2f80ed"/>
<text x="400.6" y="122.4" text-anchor="middle" font-size="10" font-family="Arial">22.33</text>
<rect x="422.3" y="205.3" width="27.8" height="229.7" fill="#f2994a"/>
<text x="436.1" y="200.3" text-anchor="middle" font-size="10" font-family="Arial">16.67</text>
<rect x="457.8" y="363.8" width="27.8" height="71.2" fill="#27ae60"/>
<text x="471.7" y="358.8" text-anchor="middle" font-size="10" font-family="Arial">5.17</text>
<text x="441.8" y="465" text-anchor="middle" font-size="12" font-family="Arial">RR</text>
<rect x="529.0" y="223.8" width="27.8" height="211.2" fill="#2f80ed"/>
<text x="542.9" y="218.8" text-anchor="middle" font-size="10" font-family="Arial">15.33</text>
<rect x="564.6" y="301.8" width="27.8" height="133.2" fill="#f2994a"/>
<text x="578.5" y="296.8" text-anchor="middle" font-size="10" font-family="Arial">9.67</text>
<rect x="600.2" y="301.8" width="27.8" height="133.2" fill="#27ae60"/>
<text x="614.1" y="296.8" text-anchor="middle" font-size="10" font-family="Arial">9.67</text>
<text x="584.2" y="465" text-anchor="middle" font-size="12" font-family="Arial">Priority</text>
<rect x="671.3" y="246.7" width="27.8" height="188.3" fill="#2f80ed"/>
<text x="685.2" y="241.7" text-anchor="middle" font-size="10" font-family="Arial">13.67</text>
<rect x="706.9" y="324.8" width="27.8" height="110.2" fill="#f2994a"/>
<text x="720.8" y="319.8" text-anchor="middle" font-size="10" font-family="Arial">8.00</text>
<rect x="742.5" y="368.5" width="27.8" height="66.5" fill="#27ae60"/>
<text x="756.4" y="363.5" text-anchor="middle" font-size="10" font-family="Arial">4.83</text>
<text x="726.5" y="465" text-anchor="middle" font-size="12" font-family="Arial">SRTF</text>
<rect x="813.7" y="244.5" width="27.8" height="190.5" fill="#2f80ed"/>
<text x="827.6" y="239.5" text-anchor="middle" font-size="10" font-family="Arial">13.83</text>
<rect x="849.3" y="322.4" width="27.8" height="112.6" fill="#f2994a"/>
<text x="863.1" y="317.4" text-anchor="middle" font-size="10" font-family="Arial">8.17</text>
<rect x="884.8" y="352.3" width="27.8" height="82.7" fill="#27ae60"/>
<text x="898.7" y="347.3" text-anchor="middle" font-size="10" font-family="Arial">6.00</text>
<text x="868.8" y="465" text-anchor="middle" font-size="12" font-family="Arial">PriorityPreemptive</text>
<rect x="86" y="498" width="16" height="16" fill="#2f80ed"/>
<text x="108" y="511" font-size="13" font-family="Arial">Turnaround</text>
<rect x="276" y="498" width="16" height="16" fill="#f2994a"/>
<text x="298" y="511" font-size="13" font-family="Arial">Waiting</text>
<rect x="466" y="498" width="16" height="16" fill="#27ae60"/>
<text x="488" y="511" font-size="13" font-family="Arial">Response</text>
</svg>